<svg id="Layer_1" data-name="Layer 1" xmlns="http://www.w3.org/2000/svg" viewBox="0 0 149.8 464.82"><defs><style>.cls-1{fill:#fff;}</style></defs><path d="M266.06,297.27c-39-25.43-43.82-74.3-22.12-105.47.54.88,1,1.63,1.46,2.41q14.41,26,28.82,52c1.4,2.51,2.76,5.05,4.2,7.54,3.07,5.34,8.78,7,14.2,4q17.13-9.39,34.19-18.93c5.61-3.13,7.21-8.85,4.07-14.55q-11.86-21.51-23.83-43-5.28-9.54-10.58-19.08c-.42-.76-.8-1.55-1.38-2.67a72.09,72.09,0,0,1,32.31,2.28,73.82,73.82,0,0,1,41.89,31.75,72.89,72.89,0,0,1,11.55,37.08,73.91,73.91,0,0,1-8.54,37.9,75.68,75.68,0,0,1-26.42,28.59v3.43q0,141.43,0,282.86c0,14.25-6.1,25.59-17.94,33.39a39.82,39.82,0,0,1-61.37-27.13,45.72,45.72,0,0,1-.47-6.92q0-141.07,0-282.14Zm37.46,266.19c-12.83,2.43-18.42,12.66-17.58,22a20.12,20.12,0,0,0,19.6,18.21c10.22.27,18.74-7.08,20.38-17.59s-5.05-19.14-17.49-22.67V308.74h-4.91Z" transform="translate(-231.1 -158.7)"/><path class="cls-1" d="M303.52,563.46V308.74h4.91V563.37c12.44,3.53,19.11,12.3,17.49,22.67s-10.16,17.86-20.38,17.59a20.12,20.12,0,0,1-19.6-18.21C285.1,576.12,290.69,565.89,303.52,563.46Z" transform="translate(-231.1 -158.7)"/></svg>